<svg width="346" height="168" viewBox="0 0 346 168" fill="none" xmlns="http://www.w3.org/2000/svg">
  <!-- 圆角长方形背景 -->
  <rect x="90" y="32" width="98" height="136" rx="8" fill="#f8f9fa" stroke="#e8e8e8" stroke-width="2"/>
  
  <!-- Info 图标 -->
  <g transform="translate(150, 72)">
    <path d="M1.75098 10C1.75098 5.58 5.33498 2 9.75598 2H14.122C18.612 2 22.251 5.64 22.251 10.13C22.251 13.09 20.644 15.81 18.055 17.24L10.001 21.7V18.01H9.93398C5.44398 18.11 1.75098 14.5 1.75098 10ZM9.75598 4C6.43898 4 3.75098 6.69 3.75098 10C3.75098 13.37 6.52098 16.08 9.88898 16.01L10.24 16H12.001V18.3L17.088 15.49C19.039 14.41 20.251 12.36 20.251 10.13C20.251 6.74 17.507 4 14.122 4H9.75598Z" fill="#666666"/>
  </g>
  
  <!-- Love 图标 -->
  <g transform="translate(104, 72)">
    <path d="M16.6969 5.4999C15.4749 5.43991 14.0179 6.0099 12.8069 7.6599L12.0019 8.74991L11.1959 7.6599C9.98394 6.0099 8.52594 5.43991 7.30394 5.4999C6.06094 5.56991 4.95494 6.2799 4.39394 7.4099C3.84194 8.5299 3.76094 10.1899 4.87294 12.2299C5.94694 14.1999 8.12994 16.4999 12.0019 18.8399C15.8719 16.4999 18.0539 14.1999 19.1279 12.2299C20.2389 10.1899 20.1579 8.5299 19.6049 7.4099C19.0439 6.2799 17.9389 5.56991 16.6969 5.4999ZM20.8839 13.1899C19.5329 15.6699 16.8829 18.3099 12.5049 20.8599L12.0019 21.1599L11.4979 20.8599C7.11894 18.3099 4.46894 15.6699 3.11594 13.1899C1.75594 10.6899 1.70594 8.32991 2.60194 6.51991C3.48894 4.72991 5.24894 3.60991 7.20294 3.50991C8.85394 3.4199 10.5709 4.06991 12.0009 5.51991C13.4299 4.06991 15.1469 3.4199 16.7969 3.50991C18.7509 3.60991 20.5109 4.72991 21.3979 6.51991C22.2939 8.32991 22.2439 10.6899 20.8839 13.1899Z" fill="#888888"/>
  </g>
  
  <!-- Dav 图标 -->
  <g transform="translate(150, 108)">
    <path d="M8.75 21V3H10.75V21H8.75ZM18 21V8.5H20V21H18ZM4 21L4.004 11H6.004L6 21H4ZM13.248 21V14H15.248V21H13.248Z" fill="#666666"/>
  </g>
  
  <!-- Circle 图标 -->
  <g transform="translate(104, 108)">
    <path d="M4.49999 3.87988L8.93199 8.01988L7.56799 9.47988L5.49999 7.54988V15.9999C5.49999 17.0999 6.39599 17.9999 7.49999 17.9999H13V19.9999H7.49999C5.29099 19.9999 3.49999 18.2099 3.49999 15.9999V7.54988L1.43199 9.47988L0.0679932 8.01988L4.49999 3.87988ZM16.5 5.99988H11V3.99988H16.5C18.709 3.99988 20.5 5.78988 20.5 7.99988V16.4499L22.568 14.5199L23.932 15.9799L19.5 20.1199L15.068 15.9799L16.432 14.5199L18.5 16.4499V7.99988C18.5 6.89988 17.604 5.99988 16.5 5.99988Z" fill="#666666"/>
  </g>
</svg>