<svg width="346" height="168" viewBox="0 0 346 168" fill="none" xmlns="http://www.w3.org/2000/svg">
  <g transform="translate(280, 64)">
    <g clip-path="url(#clip0_970_3356)">
      <path opacity="0.6" d="M39.3471 37.6764C39.2261 37.5527 39.077 37.4602 38.9124 37.4067C38.7478 37.3532 38.5728 37.3403 38.4021 37.3692C34.6176 38.0237 30.7841 38.354 26.9434 38.3566C16.6861 38.3566 7.17454 36.1551 2.12533 32.6081C2.12523 32.4262 2.0783 32.2474 1.98906 32.0889C1.89982 31.9304 1.77127 31.7976 1.6158 31.7032C1.46033 31.6088 1.28317 31.556 1.10138 31.5499C0.919588 31.5438 0.739291 31.5846 0.577849 31.6684C0.416407 31.7522 0.279258 31.8761 0.179609 32.0283C0.0799605 32.1805 0.0211682 32.3557 0.00889364 32.5372C-0.0033809 32.7187 0.0312758 32.9003 0.109527 33.0645C0.187777 33.2287 0.306986 33.37 0.455675 33.4747V39.416C0.451437 44.0203 11.0944 48.9508 26.937 48.9508C30.7319 48.9508 34.3657 48.6669 37.7411 48.1096C38.0116 48.0652 38.2543 47.9176 38.4183 47.6979C38.5823 47.4782 38.6547 47.2035 38.6204 46.9315L38.417 45.3C38.2753 44.1766 38.5762 43.0421 39.256 42.1366C39.4089 41.9313 39.4826 41.6778 39.4637 41.4225C39.3787 40.4889 39.4323 39.5479 39.6226 38.6299C39.658 38.4606 39.6514 38.2851 39.6034 38.1189C39.5554 37.9527 39.4674 37.8008 39.3471 37.6764ZM26.937 36.2377C32.73 36.2377 38.2136 35.5597 42.9746 34.2036C43.6675 33.8646 44.4769 33.6061 45.3795 33.4387C45.4382 33.4269 45.4961 33.412 45.5533 33.3942C50.5537 31.5529 53.4227 29.1141 53.4227 26.705V19.8781C53.4231 19.677 53.3664 19.4799 53.259 19.3099C53.1516 19.1399 52.9981 19.004 52.8163 18.918C52.6345 18.832 52.4321 18.7995 52.2325 18.8243C52.033 18.8491 51.8446 18.9302 51.6894 19.0581C46.7504 23.122 37.2664 25.6435 26.937 25.6435C16.6098 25.6435 7.12581 23.122 2.18254 19.0581C2.02682 18.9326 1.83888 18.8535 1.64028 18.83C1.44168 18.8064 1.24047 18.8394 1.05973 18.925C0.878989 19.0106 0.726047 19.1454 0.618454 19.314C0.51086 19.4826 0.452974 19.6781 0.451437 19.8781V26.705C0.451437 31.3072 11.0944 36.2377 26.937 36.2377ZM26.937 23.6539C41.7881 23.6539 53.4227 18.5072 53.4227 11.9366L53.4184 11.9049L53.4227 11.871C53.4227 5.33642 41.7902 0.217285 26.937 0.217285C12.0882 0.217285 0.451437 5.33642 0.451437 11.871L0.455675 11.9027L0.451437 11.9345C0.451437 18.5072 12.0882 23.6539 26.937 23.6539ZM58.5715 55.7438L54.2511 54.6632L53.9905 53.6208C55.1348 52.398 55.9046 50.873 56.209 49.2263C56.923 48.9169 57.4527 48.2474 57.5544 47.4358L57.8553 45.0373C57.909 44.5942 57.8306 44.1451 57.6301 43.7463C57.4296 43.3475 57.1158 43.0168 56.7281 42.7956L56.8149 41.0263L57.1455 40.6937C57.7917 40.0072 58.6626 38.5367 57.2599 36.3945C56.5797 35.3563 55.1771 34.1189 52.3378 34.1189C51.4797 34.1189 49.524 34.1189 47.6552 35.3224C42.2436 35.4792 41.5402 38.1977 41.5402 40.5686C41.5402 41.0539 41.6376 42.0201 41.7203 42.7553C41.3115 42.9687 40.9775 43.3016 40.7628 43.7097C40.5482 44.1178 40.4631 44.5817 40.5189 45.0394L40.8197 47.4337C40.9236 48.2728 41.4808 48.955 42.3072 49.2517C42.5953 50.8133 43.3454 52.3304 44.4133 53.5063L44.123 54.6632L39.8027 55.7438C38.2448 56.1304 36.8614 57.028 35.8735 58.2932C34.8856 59.5584 34.3503 61.1182 34.353 62.7233C34.353 63.0043 34.4646 63.2738 34.6633 63.4725C34.862 63.6711 35.1315 63.7828 35.4124 63.7828L62.9575 63.7806C63.0966 63.7806 63.2344 63.7532 63.3629 63.7C63.4914 63.6468 63.6082 63.5687 63.7066 63.4703C63.805 63.372 63.883 63.2552 63.9363 63.1266C63.9895 62.9981 64.0169 62.8603 64.0169 62.7212C64.0194 61.117 63.4844 59.5581 62.4974 58.2935C61.5104 57.0288 60.1282 56.1312 58.5715 55.7438ZM39.2899 53.6886L40.2328 53.4534C40.3826 53.4159 40.5223 53.3462 40.6422 53.249C40.7622 53.1519 40.8595 53.0298 40.9273 52.8911C40.9951 52.7524 41.0318 52.6007 41.0348 52.4463C41.0378 52.292 41.0071 52.1389 40.9448 51.9977C40.7949 51.6551 40.6627 51.305 40.5485 50.9489C40.4956 50.7836 40.129 50.3577 40.0061 50.237C39.8845 50.1183 39.7361 50.0306 39.5735 49.9812C39.4109 49.9318 39.2388 49.9221 39.0717 49.953C35.0691 50.6927 31.0074 51.0665 26.937 51.0697C16.6797 51.0697 7.16819 48.8682 2.11897 45.3212C2.11913 45.1392 2.07236 44.9601 1.98318 44.8014C1.894 44.6427 1.76542 44.5096 1.60985 44.415C1.45427 44.3205 1.27695 44.2676 1.09498 44.2615C0.913018 44.2554 0.732556 44.2963 0.571004 44.3803C0.409452 44.4642 0.272264 44.5884 0.172673 44.7408C0.0730817 44.8932 0.0144495 45.0687 0.00243254 45.2504C-0.00958447 45.4321 0.0254193 45.6138 0.104067 45.778C0.182714 45.9422 0.302352 46.0833 0.451437 46.1878V49.9446C0.451437 56.5172 12.086 61.6618 26.937 61.6618C28.433 61.6618 29.9395 61.6025 31.5434 61.4817C31.7695 61.4639 31.9839 61.3743 32.1554 61.226C32.3269 61.0777 32.4466 60.8785 32.4969 60.6575C32.8679 58.9785 33.7004 57.4365 34.9006 56.2052C36.1008 54.9739 37.621 54.1023 39.2899 53.6886Z" fill="url(#paint0_linear_970_3356)"/>
    </g>
  </g>
  <defs>
    <linearGradient id="paint0_linear_970_3356" x1="32.0085" y1="0.217285" x2="32.0085" y2="63.7828" gradientUnits="userSpaceOnUse">
      <stop stop-color="#1B68FF"/>
      <stop offset="1" stop-color="#2414FF"/>
    </linearGradient>
    <clipPath id="clip0_970_3356">
      <rect width="64" height="64" fill="white"/>
    </clipPath>
  </defs>
</svg>
