<svg width="30" height="30" viewBox="0 0 30 30" fill="none" xmlns="http://www.w3.org/2000/svg">
<path d="M29.7626 17.6726C29.9186 16.8053 30 15.9122 30 15C30 14.2289 29.9418 13.4715 29.8296 12.7317C29.7863 12.4459 29.537 12.24 29.2479 12.24H19.6002C19.2846 12.24 19.0549 11.9406 19.1366 11.6358L20.2786 7.37365C20.3629 7.05888 20.6482 6.84 20.9741 6.84H26.7042C27.085 6.84 27.311 6.41967 27.0852 6.11308C24.3542 2.4055 19.958 0 15 0C6.71573 0 0 6.71573 0 15C0 18.7716 1.39201 22.2181 3.69031 24.8538C3.93505 25.1345 4.3845 25.0183 4.48045 24.6585L7.79929 12.2128C7.86024 11.9843 7.68798 11.76 7.45145 11.76H4.56879C4.25342 11.76 4.02374 11.4611 4.105 11.1564L5.04091 7.64671C5.11113 7.38341 5.35001 7.20146 5.62245 7.19582C8.76294 7.13081 11.8663 6.30873 14.6218 4.80439C14.9066 4.64891 15.2509 4.90924 15.1673 5.22275L9.06239 28.1162C8.97122 28.458 9.14128 28.8173 9.47015 28.9478C11.1813 29.6268 13.0471 30 15 30C19.7347 30 23.9571 27.8063 26.7061 24.3799C26.9497 24.0764 26.7261 23.64 26.3369 23.64H16.5456C16.23 23.64 16.0003 23.3406 16.0819 23.0358L17.224 18.7736C17.3083 18.4589 17.5936 18.24 17.9194 18.24H29.0704C29.4084 18.24 29.7028 18.0052 29.7626 17.6726Z" fill="#1C66E5" fill-opacity="0.71" style="fill:#1C66E5;fill:color(display-p3 0.1098 0.4000 0.8980);fill-opacity:0.71;"/>
</svg>
