<svg width="651" height="150" viewBox="0 0 651 150" fill="none" xmlns="http://www.w3.org/2000/svg">
  <g transform="translate(0, 0)">
    <path d="M50.5157 1.39649C53.2314 -0.157946 56.7686 -0.164968 59.4819 1.39649C73.1324 9.10975 86.7872 16.8109 100.435 24.5289C103.002 25.9749 104.72 28.8317 104.693 31.7896V78.1956C104.713 81.276 102.826 84.2011 100.118 85.6144C86.5118 93.2851 72.9132 100.965 59.3099 108.636C56.538 110.221 52.9299 110.099 50.2446 108.384C46.1656 106.019 42.0796 103.666 38.0003 101.304C37.1667 100.807 36.227 100.412 35.6384 99.6035C36.1588 98.9021 37.0891 98.8148 37.845 98.5085C39.5477 97.9671 41.1115 97.098 42.6757 96.2547C43.0712 95.984 43.5541 96.0878 43.9333 96.33C47.4213 98.3299 50.8785 100.388 54.3782 102.369C55.1248 102.8 55.8807 102.227 56.5189 101.872C69.8703 94.3258 83.238 86.8084 96.587 79.2601C97.0816 79.0222 97.355 78.4971 97.3149 77.9553C97.3242 62.647 97.3172 47.3359 97.3195 32.0276C97.3761 31.4128 97.0204 30.8476 96.4645 30.596C82.906 22.9604 69.3546 15.313 55.7984 7.67546C55.5636 7.51399 55.2853 7.42735 55.0003 7.42693C54.7153 7.42652 54.4368 7.51234 54.2015 7.67312C40.6454 15.313 27.0962 22.9674 13.5401 30.6027C12.9862 30.8546 12.6145 31.4105 12.6804 32.0276C12.6827 47.3359 12.6804 62.647 12.6804 77.9577C12.6569 78.222 12.7149 78.4872 12.8468 78.7176C12.9786 78.9479 13.1778 79.1324 13.4176 79.2461C17.0351 81.2974 20.6573 83.3344 24.2772 85.3788C26.3165 86.4764 28.8204 87.1286 31.0672 86.2876C33.0499 85.5765 34.4397 83.5532 34.4019 81.448C34.4206 66.229 34.3925 51.0077 34.4159 35.791C34.3664 35.1154 35.0073 34.5572 35.6641 34.6208C37.4023 34.6091 39.1428 34.5974 40.881 34.6255C41.6065 34.6091 42.1058 35.3366 42.0161 36.0172C42.009 51.3326 42.0348 66.6483 42.0044 81.9637C42.009 86.0454 40.3321 90.4867 36.5566 92.4839C31.9054 94.8934 26.1566 94.3824 21.5615 92.072C17.5836 90.0865 13.7874 87.7434 9.88007 85.6163C7.16479 84.2109 5.28737 81.274 5.30649 78.196V31.7896C5.27801 28.7705 7.06337 25.8617 9.71039 24.4368C23.3137 16.7598 36.9147 9.07698 50.5157 1.39649Z" fill="#8CC84B"/>
    <path d="M62.3833 33.5424C68.3163 33.1605 74.6678 33.3161 80.0067 36.2389C84.1403 38.4787 86.4319 43.1795 86.5049 47.7718C86.3894 48.3912 85.7419 48.7329 85.1506 48.6904C83.4292 48.688 81.7074 48.7138 79.986 48.6787C79.2558 48.7068 78.8314 48.0335 78.7397 47.3879C78.2451 45.1907 77.0468 43.0145 74.9787 41.9546C71.8039 40.3651 68.1228 40.4451 64.6609 40.4782C62.1336 40.6124 59.416 40.8312 57.2749 42.3174C55.6312 43.4432 55.1319 45.7157 55.7185 47.5459C56.2717 48.8601 57.7886 49.2841 59.0298 49.6749C66.1798 51.5449 73.7566 51.3589 80.7701 53.8198C83.6738 54.8231 86.5143 56.7734 87.5082 59.8137C88.8083 63.8883 88.2384 68.7588 85.3394 72.0299C82.9884 74.7218 79.5644 76.1869 76.1493 76.9826C71.6061 77.9956 66.8913 78.0214 62.2776 77.5716C57.9392 77.077 53.4245 75.9372 50.0754 72.9813C47.2115 70.4946 45.8127 66.62 45.9516 62.8804C45.9847 62.2489 46.6135 61.8085 47.2185 61.8604C48.952 61.8463 50.6855 61.8416 52.4189 61.8627C53.1113 61.8132 53.6246 62.4115 53.6601 63.0641C53.98 65.1576 54.7668 67.3549 56.5923 68.5961C60.1154 70.869 64.5361 70.7134 68.5702 70.777C71.9123 70.6288 75.664 70.5839 78.3914 68.3749C79.8304 67.115 80.2567 65.0071 79.8678 63.1936C79.4466 61.6626 77.8449 60.9491 76.4695 60.4826C69.4112 58.2499 61.7498 59.06 54.7597 56.5351C51.922 55.5322 49.1778 53.6361 48.0876 50.7207C46.5663 46.5945 47.2634 41.4909 50.4662 38.3301C53.5891 35.1861 58.0972 33.9757 62.3833 33.5424Z" fill="#8CC84B"/>
  </g>
  <g transform="translate(100, 0)">
    <g filter="url(#filter0_d_982_3600)">
      <path d="M78.1041 21.5356L21.5355 78.1041C19.5829 80.0567 19.5829 83.2226 21.5355 85.1752L78.1041 141.744C80.0567 143.696 83.2225 143.696 85.1751 141.744L141.744 85.1752C143.696 83.2226 143.696 80.0567 141.744 78.1041L85.1751 21.5356C83.2225 19.583 80.0567 19.583 78.1041 21.5356Z" fill="#F7F8FC"/>
      <path d="M21.8891 78.4577L78.4576 21.8891C80.215 20.1318 83.0642 20.1318 84.8216 21.8891L141.39 78.4577C143.147 80.215 143.147 83.0643 141.39 84.8216L84.8216 141.39C83.0642 143.148 80.215 143.148 78.4576 141.39L21.8891 84.8216C20.1317 83.0643 20.1317 80.215 21.8891 78.4577Z" stroke="#2414FF"/>
    </g>
    <path d="M73.7813 77.4297L72.4531 81.0781H75.1406L73.7813 77.4297Z" fill="white"/>
    <path d="M96.6641 62.2891H64.3906C63.1016 62.2891 62.0469 63.3437 62.0469 64.6328V96.9062C62.0469 98.1953 63.1016 99.25 64.3906 99.25H96.6641C97.9531 99.25 99.0078 98.1953 99.0078 96.9062V64.6328C99.0078 63.3359 97.9531 62.2891 96.6641 62.2891ZM88.9453 75.1406H90.9297V84.9687H88.9453V75.1406ZM79.8437 75.1406H83.0312C84.2422 75.1406 85.0234 75.1875 85.3906 75.2891C85.9531 75.4375 86.4219 75.7578 86.8047 76.25C87.1875 76.7422 87.375 77.3828 87.375 78.1641C87.375 78.7656 87.2656 79.2734 87.0469 79.6875C86.8281 80.1016 86.5469 80.4219 86.2109 80.6562C85.875 80.8906 85.5312 81.0469 85.1797 81.125C84.7031 81.2187 84.0234 81.2656 83.1172 81.2656H81.8203V84.9687H79.8437V75.1406ZM72.7578 75.1406H74.8594L78.7891 84.9687H76.6328L75.7734 82.7344H71.8437L71.0312 84.9687H68.9219L72.7578 75.1406ZM90.6562 96.4922H67.5469C66.0312 96.4922 64.8047 95.2656 64.8047 93.75V70.7031C64.8047 70.2734 65.1562 69.9219 65.5859 69.9219C66.0156 69.9219 66.3672 70.2734 66.3672 70.7031V93.75C66.3672 94.3984 66.8984 94.9297 67.5469 94.9297H90.6562C91.0859 94.9297 91.4375 95.2812 91.4375 95.7109C91.4375 96.1406 91.0937 96.4922 90.6562 96.4922Z" fill="white"/>
    <path d="M84.4844 79.4375C84.75 79.3359 84.9531 79.1719 85.1016 78.9531C85.25 78.7344 85.3281 78.4766 85.3281 78.1875C85.3281 77.8281 85.2266 77.5312 85.0156 77.3047C84.8047 77.0703 84.5391 76.9297 84.2187 76.8672C83.9844 76.8203 83.5078 76.7969 82.7891 76.7969H81.8281V79.5859H82.9141C83.6953 79.5938 84.2188 79.5391 84.4844 79.4375Z" fill="white"/>
    <path d="M90.6563 94.9297H67.5469C66.8984 94.9297 66.3672 94.3984 66.3672 93.75V70.7031C66.3672 70.2734 66.0156 69.9219 65.5859 69.9219C65.1562 69.9219 64.8047 70.2734 64.8047 70.7031V93.75C64.8047 95.2656 66.0313 96.4922 67.5469 96.4922H90.6563C91.0859 96.4922 91.4375 96.1406 91.4375 95.7109C91.4375 95.2812 91.0938 94.9297 90.6563 94.9297Z" fill="#06F3FF"/>
    <path d="M107.578 72.1953C108.438 72.1953 109.141 71.4922 109.141 70.6328C109.141 69.7734 108.438 69.0703 107.578 69.0703H102.133V64.6328C102.133 61.6172 99.6797 59.1641 96.6641 59.1641H94.4922V53.9062C94.4922 53.0469 93.7891 52.3438 92.9297 52.3438C92.0703 52.3438 91.3672 53.0469 91.3672 53.9062V59.1641H87.7344V53.9062C87.7344 53.0469 87.0312 52.3438 86.1719 52.3438C85.3125 52.3438 84.6094 53.0469 84.6094 53.9062V59.1641H80.9766V53.9062C80.9766 53.0469 80.2734 52.3438 79.4141 52.3438C78.5547 52.3438 77.8516 53.0469 77.8516 53.9062V59.1641H74.2188V53.9062C74.2188 53.0469 73.5156 52.3438 72.6562 52.3438C71.7969 52.3438 71.0938 53.0469 71.0938 53.9062V59.1641H64.3906C61.375 59.1641 58.9219 61.6172 58.9219 64.6328V69.0703H53.4766C52.6172 69.0703 51.9141 69.7734 51.9141 70.6328C51.9141 71.4922 52.6172 72.1953 53.4766 72.1953H58.9219V75.8281H53.4766C52.6172 75.8281 51.9141 76.5312 51.9141 77.3906C51.9141 78.25 52.6172 78.9531 53.4766 78.9531H58.9219V82.5859H53.4766C52.6172 82.5859 51.9141 83.2891 51.9141 84.1484C51.9141 85.0078 52.6172 85.7109 53.4766 85.7109H58.9219V89.3438H53.4766C52.6172 89.3438 51.9141 90.0469 51.9141 90.9062C51.9141 91.7656 52.6172 92.4688 53.4766 92.4688H58.9219V96.9062C58.9219 99.9219 61.375 102.375 64.3906 102.375H66.7969V108.039C66.7969 108.898 67.5 109.602 68.3594 109.602C69.2188 109.602 69.9219 108.898 69.9219 108.039V102.375H73.5547V108.039C73.5547 108.898 74.2578 109.602 75.1172 109.602C75.9766 109.602 76.6797 108.898 76.6797 108.039V102.375H80.3125V108.039C80.3125 108.898 81.0156 109.602 81.875 109.602C82.7344 109.602 83.4375 108.898 83.4375 108.039V102.375H87.0703V108.039C87.0703 108.898 87.7734 109.602 88.6328 109.602C89.4922 109.602 90.1953 108.898 90.1953 108.039V102.375H96.6641C99.6797 102.375 102.133 99.9219 102.133 96.9062V92.4688H107.578C108.438 92.4688 109.141 91.7656 109.141 90.9062C109.141 90.0469 108.438 89.3438 107.578 89.3438H102.133V85.7109H107.578C108.438 85.7109 109.141 85.0078 109.141 84.1484C109.141 83.2891 108.438 82.5859 107.578 82.5859H102.133V78.9531H107.578C108.438 78.9531 109.141 78.25 109.141 77.3906C109.141 76.5312 108.438 75.8281 107.578 75.8281H102.133V72.1953H107.578ZM99.0078 96.8984C99.0078 98.1875 97.9531 99.2422 96.6641 99.2422H64.3906C63.1016 99.2422 62.0469 98.1875 62.0469 96.8984V64.6328C62.0469 63.3438 63.1016 62.2891 64.3906 62.2891H96.6641C97.9531 62.2891 99.0078 63.3438 99.0078 64.6328V96.8984Z" fill="#2414FF"/>
    <path d="M71.8437 82.7344H75.7734L76.6328 84.9687H78.7891L74.8516 75.1406H72.75L68.9219 84.9687H71.0312L71.8437 82.7344ZM73.7812 77.4297L75.1328 81.0781H72.4531L73.7812 77.4297ZM81.8281 81.2656H83.125C84.0234 81.2656 84.7109 81.2187 85.1875 81.125C85.5391 81.0469 85.8828 80.8906 86.2187 80.6562C86.5547 80.4219 86.8359 80.1016 87.0547 79.6875C87.2734 79.2734 87.3828 78.7656 87.3828 78.1641C87.3828 77.3828 87.1953 76.7422 86.8125 76.25C86.4297 75.7578 85.9609 75.4375 85.3984 75.2891C85.0312 75.1875 84.2422 75.1406 83.0391 75.1406H79.8437V84.9687H81.8281V81.2656ZM81.8281 76.8047H82.7891C83.5078 76.8047 83.9766 76.8281 84.2187 76.875C84.5391 76.9297 84.8047 77.0781 85.0156 77.3125C85.2266 77.5469 85.3281 77.8437 85.3281 78.1953C85.3281 78.4844 85.25 78.7422 85.1016 78.9609C84.9531 79.1797 84.7422 79.3437 84.4844 79.4453C84.2188 79.5469 83.6953 79.6016 82.9141 79.6016H81.8281V76.8047ZM88.9453 75.1406H90.9297V84.9687H88.9453V75.1406Z" fill="#2414FF"/>
  </g>
<defs>
  <filter id="filter0_d_982_3600" x="0.0710449" y="0.0712891" width="163.137" height="163.137" filterUnits="userSpaceOnUse" color-interpolation-filters="sRGB">
    <feFlood flood-opacity="0" result="BackgroundImageFix"/>
    <feColorMatrix in="SourceAlpha" type="matrix" values="0 0 0 0 0 0 0 0 0 0 0 0 0 0 0 0 0 0 127 0" result="hardAlpha"/>
    <feOffset/>
    <feGaussianBlur stdDeviation="10"/>
    <feComposite in2="hardAlpha" operator="out"/>
    <feColorMatrix type="matrix" values="0 0 0 0 0.141176 0 0 0 0 0.0784314 0 0 0 0 1 0 0 0 0.25 0"/>
    <feBlend mode="normal" in2="BackgroundImageFix" result="effect1_dropShadow_982_3600"/>
    <feBlend mode="normal" in="SourceGraphic" in2="effect1_dropShadow_982_3600" result="shape"/>
  </filter>
</defs>
</svg>
