<svg width="200" height="200" viewBox="0 0 200 200" fill="none" xmlns="http://www.w3.org/2000/svg">
  <!-- 外圆 -->
  <circle cx="100" cy="100" r="12" fill="none" stroke="#3B82F6" stroke-width="4" opacity="0.8"/>
  
  <!-- 内嵌圆 -->
  <circle cx="100" cy="100" r="10" fill="none" stroke="#1E40AF" stroke-width="2" opacity="0.9"/>
  
  <!-- 贝塞尔曲线连接上半部分 -->
  <!-- 左侧6条贝塞尔曲线 -->
  <path d="M88 100 Q88 90 95 80 Q100 70 105 80 Q110 90 110 100" stroke="#10B981" stroke-width="1.5" fill="none" opacity="0.8"/>
  <path d="M86 100 Q86 88 93 76 Q100 64 107 76 Q114 88 114 100" stroke="#10B981" stroke-width="1.5" fill="none" opacity="0.8"/>
  <path d="M84 100 Q84 86 91 72 Q100 58 109 72 Q116 86 116 100" stroke="#10B981" stroke-width="1.5" fill="none" opacity="0.8"/>
  <path d="M82 100 Q82 84 89 68 Q100 52 111 68 Q118 84 118 100" stroke="#10B981" stroke-width="1.5" fill="none" opacity="0.8"/>
  <path d="M80 100 Q80 82 87 64 Q100 46 113 64 Q120 82 120 100" stroke="#10B981" stroke-width="1.5" fill="none" opacity="0.8"/>
  <path d="M78 100 Q78 80 85 60 Q100 40 115 60 Q122 80 122 100" stroke="#10B981" stroke-width="1.5" fill="none" opacity="0.8"/>
  
  <!-- 右侧6条贝塞尔曲线 -->
  <path d="M112 100 Q112 90 105 80 Q100 70 95 80 Q90 90 90 100" stroke="#F59E0B" stroke-width="1.5" fill="none" opacity="0.8"/>
  <path d="M114 100 Q114 88 107 76 Q100 64 93 76 Q86 88 86 100" stroke="#F59E0B" stroke-width="1.5" fill="none" opacity="0.8"/>
  <path d="M116 100 Q116 86 109 72 Q100 58 91 72 Q84 86 84 100" stroke="#F59E0B" stroke-width="1.5" fill="none" opacity="0.8"/>
  <path d="M118 100 Q118 84 111 68 Q100 52 89 68 Q82 84 82 100" stroke="#F59E0B" stroke-width="1.5" fill="none" opacity="0.8"/>
  <path d="M120 100 Q120 82 113 64 Q100 46 87 64 Q80 82 80 100" stroke="#F59E0B" stroke-width="1.5" fill="none" opacity="0.8"/>
  <path d="M122 100 Q122 80 115 60 Q100 40 85 60 Q78 80 78 100" stroke="#F59E0B" stroke-width="1.5" fill="none" opacity="0.8"/>
</svg>
