<svg aria-hidden="true" data-size="large" fill="none" height="384" viewBox="0 0 1080 384" width="1080"  xmlns="http://www.w3.org/2000/svg">
  <defs>
    <style>
      :root {
        --guide-color: #4A5568;
        --ds-gray-800: #2D3748;
        --ds-gray-500: #718096;
        --ds-gray-600: #4A5568;
        --ds-gray-1000: #1A202C;
        --ds-background-200: #EDF2F7;
        --geist-foreground: #2D3748;
      }
    </style>
  </defs>
  <path d="M64 111L164.736 111C205.962 111 245.908 125.315 277.75 151.5V151.5C309.592 177.685 349.538 192 390.764 192H538" stroke="var(--ds-gray-800)" stroke-width="2"></path>
  <path d="M239 256V256C241.627 219.926 271.66 192 307.829 192H538" stroke="var(--ds-gray-500)" stroke-width="2"></path>
  <path d="M538 192H157" stroke="var(--ds-gray-600)" stroke-width="2"></path>
  <path d="M96 352L101.864 334.702C122.27 274.503 178.767 234 242.33 234L297.399 234C313.062 234 327.67 226.104 336.25 213V213C344.83 199.896 359.438 192 375.101 192L538 192" stroke="var(--ds-gray-800)" stroke-width="2"></path>
  <path d="M153 33V33C156.35 121.767 229.283 192 318.113 192H538" stroke="var(--ds-gray-1000)" stroke-width="2"></path>
  <defs>
    <linearGradient gradientUnits="userSpaceOnUse" id="paint0_linear_1058_57004" x1="1080" x2="639" y1="352" y2="352">
      <stop stop-color="#D9D9D9" stop-opacity="0"></stop>
      <stop offset="0.29385" stop-color="#D9D9D9"></stop>
    </linearGradient>
    <linearGradient gradientUnits="userSpaceOnUse" id="paint1_linear_1058_57004" x1="809.609" x2="809.609" y1="111.024" y2="273.476">
      <stop offset="0.156297" stop-color="#EC4B4B"></stop>
      <stop offset="0.5" stop-color="#5AAAE4"></stop>
      <stop offset="0.833333" stop-color="#4DFFBF"></stop>
    </linearGradient>
    <linearGradient gradientUnits="userSpaceOnUse" id="paint2_linear_1058_57004" x1="639" x2="443" y1="232" y2="232">
      <stop stop-color="#D9D9D9" stop-opacity="0"></stop>
      <stop offset="0.171875" stop-color="#D9D9D9"></stop>
      <stop offset="0.84375" stop-color="#D9D9D9"></stop>
      <stop offset="1" stop-color="#D9D9D9" stop-opacity="0"></stop>
    </linearGradient>
    <clipPath id="clip0_1058_57004">
      <rect fill="white" height="16" transform="translate(56 104)" width="16"></rect>
    </clipPath>
    <clipPath id="clip1_1058_57004">
      <rect fill="white" height="16" transform="translate(145 24)" width="16"></rect>
    </clipPath>
    <clipPath id="clip2_1058_57004">
      <rect fill="white" height="16" transform="translate(88 344)" width="16"></rect>
    </clipPath>
    <clipPath id="clip3_1058_57004">
      <rect fill="white" height="16" transform="translate(230 264)" width="16"></rect>
    </clipPath>
    <clipPath id="clip4_1058_57004">
      <rect fill="white" height="16" transform="translate(147 184)" width="16"></rect>
    </clipPath>
  </defs>
</svg>