<svg width="648" height="365" viewBox="0 0 648 365" fill="none" xmlns="http://www.w3.org/2000/svg">
  <style>
    @keyframes drawLeftBorder {
      0% {
        stroke-dashoffset: 800;
      }
      50% {
        stroke-dashoffset: 800;
      }
      100% {
        stroke-dashoffset: 0;
      }
    }
    
    @keyframes drawRightBorder {
      0% {
        stroke-dashoffset: 800;
      }
      50% {
        stroke-dashoffset: 800;
      }
      100% {
        stroke-dashoffset: 0;
      }
    }
    
    
    #left-border {
      animation: drawLeftBorder 3s ease-in-out forwards;
    }
    
    #right-border {
      animation: drawRightBorder 3s ease-in-out forwards;
    }

    @keyframes drawBezierCurve {
      0% { stroke-dashoffset: -200;}
      50% {        stroke-dashoffset: 0;}
      100% {        stroke-dashoffset: 0;      }
    }
    
    @keyframes drawBezierCurveRotated {
      0% { stroke-dashoffset: -200;}
      50% {        stroke-dashoffset: 0;}
      100% {        stroke-dashoffset: 0;      }
    }
    
    #bezier-curve {
      animation: drawBezierCurve 3s ease-in-out forwards;
    }
    
    #bezier-curve-rotated {
      animation: drawBezierCurveRotated 3s ease-in-out forwards;
    }
  </style>
  <!-- 边框 -->
  <rect x="0" y="0" width="648" height="365" fill="none" stroke="#e5e7eb" stroke-width="2" rx="8"/>
  <g transform="translate(500.5, 8)" id="logo-api">
    <g filter="url(#filter0_d_982_3600)">
      <path d="M78.1041 21.5356L21.5355 78.1041C19.5829 80.0567 19.5829 83.2226 21.5355 85.1752L78.1041 141.744C80.0567 143.696 83.2225 143.696 85.1751 141.744L141.744 85.1752C143.696 83.2226 143.696 80.0567 141.744 78.1041L85.1751 21.5356C83.2225 19.583 80.0567 19.583 78.1041 21.5356Z" fill="#F7F8FC"/>
    </g>
    <path d="M74.9305 79.4536L73.6541 82.9601H76.237L74.9305 79.4536Z" fill="white"/>
    <path d="M96.9229 64.9023H65.9051C64.6662 64.9023 63.6526 65.916 63.6526 67.1549V98.1726C63.6526 99.4116 64.6662 100.425 65.9051 100.425H96.9229C98.1618 100.425 99.1754 99.4116 99.1754 98.1726V67.1549C99.1754 65.9085 98.1618 64.9023 96.9229 64.9023ZM89.5045 77.2539H91.4116V86.6996H89.5045V77.2539ZM80.757 77.2539H83.8205C84.9843 77.2539 85.7352 77.2989 86.0881 77.3965C86.6287 77.5392 87.0792 77.8471 87.4471 78.3201C87.815 78.7931 87.9952 79.4088 87.9952 80.1597C87.9952 80.7378 87.8901 81.2259 87.6799 81.6238C87.4697 82.0218 87.1993 82.3296 86.8765 82.5549C86.5536 82.7802 86.2232 82.9303 85.8853 83.0054C85.4273 83.0955 84.7741 83.1406 83.9031 83.1406H82.6567V86.6996H80.757V77.2539ZM73.9468 77.2539H75.9666L79.7434 86.6996H77.671L76.8451 84.5522H73.0683L72.2874 86.6996H70.2601L73.9468 77.2539ZM91.1488 97.7747H68.9386C67.4819 97.7747 66.3031 96.5959 66.3031 95.1392V72.989C66.3031 72.5761 66.641 72.2382 67.054 72.2382C67.4669 72.2382 67.8048 72.5761 67.8048 72.989V95.1392C67.8048 95.7624 68.3154 96.273 68.9386 96.273H91.1488C91.5618 96.273 91.8997 96.6109 91.8997 97.0238C91.8997 97.4368 91.5693 97.7747 91.1488 97.7747Z" fill="white"/>
    <path d="M85.2171 81.3831C85.4724 81.2855 85.6676 81.1278 85.8103 80.9176C85.9529 80.7073 86.028 80.4596 86.028 80.1817C86.028 79.8363 85.9304 79.551 85.7277 79.3333C85.5249 79.108 85.2696 78.9729 84.9618 78.9128C84.7365 78.8677 84.2785 78.8452 83.5877 78.8452H82.6642V81.5258H83.7079C84.4587 81.5333 84.9618 81.4807 85.2171 81.3831Z" fill="white"/>
    <path d="M91.1488 96.2726H68.9386C68.3154 96.2726 67.8048 95.762 67.8048 95.1388V72.9886C67.8048 72.5757 67.4669 72.2378 67.054 72.2378C66.641 72.2378 66.3031 72.5757 66.3031 72.9886V95.1388C66.3031 96.5955 67.4819 97.7743 68.9386 97.7743H91.1488C91.5618 97.7743 91.8997 97.4364 91.8997 97.0235C91.8997 96.6105 91.5693 96.2726 91.1488 96.2726Z" fill="#06F3FF"/>
    <path d="M107.412 74.4229C108.238 74.4229 108.914 73.7472 108.914 72.9212C108.914 72.0953 108.238 71.4195 107.412 71.4195H102.179V67.1547C102.179 64.2564 99.8212 61.8987 96.9229 61.8987H94.8356V56.8455C94.8356 56.0195 94.1598 55.3438 93.3339 55.3438C92.5079 55.3438 91.8322 56.0195 91.8322 56.8455V61.8987H88.3407V56.8455C88.3407 56.0195 87.6649 55.3438 86.839 55.3438C86.013 55.3438 85.3373 56.0195 85.3373 56.8455V61.8987H81.8458V56.8455C81.8458 56.0195 81.17 55.3438 80.3441 55.3438C79.5182 55.3438 78.8424 56.0195 78.8424 56.8455V61.8987H75.3509V56.8455C75.3509 56.0195 74.6752 55.3438 73.8492 55.3438C73.0233 55.3438 72.3475 56.0195 72.3475 56.8455V61.8987H65.9052C63.0069 61.8987 60.6492 64.2564 60.6492 67.1547V71.4195H55.4158C54.5898 71.4195 53.9141 72.0953 53.9141 72.9212C53.9141 73.7472 54.5898 74.4229 55.4158 74.4229H60.6492V77.9144H55.4158C54.5898 77.9144 53.9141 78.5902 53.9141 79.4161C53.9141 80.242 54.5898 80.9178 55.4158 80.9178H60.6492V84.4093H55.4158C54.5898 84.4093 53.9141 85.085 53.9141 85.911C53.9141 86.7369 54.5898 87.4127 55.4158 87.4127H60.6492V90.9042H55.4158C54.5898 90.9042 53.9141 91.5799 53.9141 92.4059C53.9141 93.2318 54.5898 93.9076 55.4158 93.9076H60.6492V98.1724C60.6492 101.071 63.0069 103.428 65.9052 103.428H68.2178V108.872C68.2178 109.698 68.8936 110.374 69.7195 110.374C70.5455 110.374 71.2212 109.698 71.2212 108.872V103.428H74.7127V108.872C74.7127 109.698 75.3885 110.374 76.2144 110.374C77.0403 110.374 77.7161 109.698 77.7161 108.872V103.428H81.2076V108.872C81.2076 109.698 81.8833 110.374 82.7093 110.374C83.5352 110.374 84.211 109.698 84.211 108.872V103.428H87.7025V108.872C87.7025 109.698 88.3782 110.374 89.2042 110.374C90.0301 110.374 90.7059 109.698 90.7059 108.872V103.428H96.9229C99.8212 103.428 102.179 101.071 102.179 98.1724V93.9076H107.412C108.238 93.9076 108.914 93.2318 108.914 92.4059C108.914 91.5799 108.238 90.9042 107.412 90.9042H102.179V87.4127H107.412C108.238 87.4127 108.914 86.7369 108.914 85.911C108.914 85.085 108.238 84.4093 107.412 84.4093H102.179V80.9178H107.412C108.238 80.9178 108.914 80.242 108.914 79.4161C108.914 78.5902 108.238 77.9144 107.412 77.9144H102.179V74.4229H107.412ZM99.1755 98.1649C99.1755 99.4038 98.1618 100.417 96.9229 100.417H65.9052C64.6663 100.417 63.6526 99.4038 63.6526 98.1649V67.1547C63.6526 65.9158 64.6663 64.9021 65.9052 64.9021H96.9229C98.1618 64.9021 99.1755 65.9158 99.1755 67.1547V98.1649Z" fill="#2414FF"/>
    <path d="M73.0683 84.5517H76.8451L77.6711 86.6992H79.7434L75.9591 77.2534H73.9393L70.2601 86.6992H72.2874L73.0683 84.5517ZM74.9304 79.4534L76.2294 82.9599H73.654L74.9304 79.4534ZM82.6642 83.1401H83.9106C84.7741 83.1401 85.4349 83.0951 85.8929 83.005C86.2308 82.9299 86.5612 82.7797 86.884 82.5544C87.2069 82.3292 87.4772 82.0213 87.6874 81.6234C87.8977 81.2254 88.0028 80.7374 88.0028 80.1592C88.0028 79.4084 87.8226 78.7927 87.4547 78.3196C87.0868 77.8466 86.6362 77.5387 86.0956 77.3961C85.7427 77.2985 84.9844 77.2534 83.8281 77.2534H80.7571V86.6992H82.6642V83.1401ZM82.6642 78.8527H83.5878C84.2786 78.8527 84.7291 78.8753 84.9618 78.9203C85.2697 78.9729 85.525 79.1155 85.7277 79.3408C85.9304 79.566 86.0281 79.8514 86.0281 80.1893C86.0281 80.4671 85.953 80.7149 85.8103 80.9251C85.6676 81.1353 85.4649 81.293 85.2171 81.3906C84.9618 81.4882 84.4588 81.5408 83.7079 81.5408H82.6642V78.8527ZM89.5045 77.2534H91.4117V86.6992H89.5045V77.2534Z" fill="#2414FF"/>
    <defs>
      <filter id="filter0_d_982_3600" x="0.0710449" y="0.0712891" width="163.137" height="163.137" filterUnits="userSpaceOnUse" color-interpolation-filters="sRGB">
        <feFlood flood-opacity="0" result="BackgroundImageFix"/>
        <feColorMatrix in="SourceAlpha" type="matrix" values="0 0 0 0 0 0 0 0 0 0 0 0 0 0 0 0 0 0 127 0" result="hardAlpha"/>
        <feOffset/>
        <feGaussianBlur stdDeviation="10"/>
        <feComposite in2="hardAlpha" operator="out"/>
        <feColorMatrix type="matrix" values="0 0 0 0 0.141176 0 0 0 0 0.0784314 0 0 0 0 1 0 0 0 0.25 0"/>
        <feBlend mode="normal" in2="BackgroundImageFix" result="effect1_dropShadow_982_3600"/>
        <feBlend mode="normal" in="SourceGraphic" in2="effect1_dropShadow_982_3600" result="shape"/>
      </filter>
    </defs>
  </g>
  <g transform="translate(270, 33)" id="logo-js">
    <path d="M50.5157 1.39649C53.2314 -0.157946 56.7686 -0.164968 59.4819 1.39649C73.1324 9.10975 86.7872 16.8109 100.435 24.5289C103.002 25.9749 104.72 28.8317 104.693 31.7896V78.1956C104.713 81.276 102.826 84.2011 100.118 85.6144C86.5118 93.2851 72.9132 100.965 59.3099 108.636C56.538 110.221 52.9299 110.099 50.2446 108.384C46.1656 106.019 42.0796 103.666 38.0003 101.304C37.1667 100.807 36.227 100.412 35.6384 99.6035C36.1588 98.9021 37.0891 98.8148 37.845 98.5085C39.5477 97.9671 41.1115 97.098 42.6757 96.2547C43.0712 95.984 43.5541 96.0878 43.9333 96.33C47.4213 98.3299 50.8785 100.388 54.3782 102.369C55.1248 102.8 55.8807 102.227 56.5189 101.872C69.8703 94.3258 83.238 86.8084 96.587 79.2601C97.0816 79.0222 97.355 78.4971 97.3149 77.9553C97.3242 62.647 97.3172 47.3359 97.3195 32.0276C97.3761 31.4128 97.0204 30.8476 96.4645 30.596C82.906 22.9604 69.3546 15.313 55.7984 7.67546C55.5636 7.51399 55.2853 7.42735 55.0003 7.42693C54.7153 7.42652 54.4368 7.51234 54.2015 7.67312C40.6454 15.313 27.0962 22.9674 13.5401 30.6027C12.9862 30.8546 12.6145 31.4105 12.6804 32.0276C12.6827 47.3359 12.6804 62.647 12.6804 77.9577C12.6569 78.222 12.7149 78.4872 12.8468 78.7176C12.9786 78.9479 13.1778 79.1324 13.4176 79.2461C17.0351 81.2974 20.6573 83.3344 24.2772 85.3788C26.3165 86.4764 28.8204 87.1286 31.0672 86.2876C33.0499 85.5765 34.4397 83.5532 34.4019 81.448C34.4206 66.229 34.3925 51.0077 34.4159 35.791C34.3664 35.1154 35.0073 34.5572 35.6641 34.6208C37.4023 34.6091 39.1428 34.5974 40.881 34.6255C41.6065 34.6091 42.1058 35.3366 42.0161 36.0172C42.009 51.3326 42.0348 66.6483 42.0044 81.9637C42.009 86.0454 40.3321 90.4867 36.5566 92.4839C31.9054 94.8934 26.1566 94.3824 21.5615 92.072C17.5836 90.0865 13.7874 87.7434 9.88007 85.6163C7.16479 84.2109 5.28737 81.274 5.30649 78.196V31.7896C5.27801 28.7705 7.06337 25.8617 9.71039 24.4368C23.3137 16.7598 36.9147 9.07698 50.5157 1.39649Z" fill="#8CC84B"/>
    <path d="M62.3833 33.5424C68.3163 33.1605 74.6678 33.3161 80.0067 36.2389C84.1403 38.4787 86.4319 43.1795 86.5049 47.7718C86.3894 48.3912 85.7419 48.7329 85.1506 48.6904C83.4292 48.688 81.7074 48.7138 79.986 48.6787C79.2558 48.7068 78.8314 48.0335 78.7397 47.3879C78.2451 45.1907 77.0468 43.0145 74.9787 41.9546C71.8039 40.3651 68.1228 40.4451 64.6609 40.4782C62.1336 40.6124 59.416 40.8312 57.2749 42.3174C55.6312 43.4432 55.1319 45.7157 55.7185 47.5459C56.2717 48.8601 57.7886 49.2841 59.0298 49.6749C66.1798 51.5449 73.7566 51.3589 80.7701 53.8198C83.6738 54.8231 86.5143 56.7734 87.5082 59.8137C88.8083 63.8883 88.2384 68.7588 85.3394 72.0299C82.9884 74.7218 79.5644 76.1869 76.1493 76.9826C71.6061 77.9956 66.8913 78.0214 62.2776 77.5716C57.9392 77.077 53.4245 75.9372 50.0754 72.9813C47.2115 70.4946 45.8127 66.62 45.9516 62.8804C45.9847 62.2489 46.6135 61.8085 47.2185 61.8604C48.952 61.8463 50.6855 61.8416 52.4189 61.8627C53.1113 61.8132 53.6246 62.4115 53.6601 63.0641C53.98 65.1576 54.7668 67.3549 56.5923 68.5961C60.1154 70.869 64.5361 70.7134 68.5702 70.777C71.9123 70.6288 75.664 70.5839 78.3914 68.3749C79.8304 67.115 80.2567 65.0071 79.8678 63.1936C79.4466 61.6626 77.8449 60.9491 76.4695 60.4826C69.4112 58.2499 61.7498 59.06 54.7597 56.5351C51.922 55.5322 49.1778 53.6361 48.0876 50.7207C46.5663 46.5945 47.2634 41.4909 50.4662 38.3301C53.5891 35.1861 58.0972 33.9757 62.3833 33.5424Z" fill="#8CC84B"/>
  </g>
  <g transform="translate(-16, 8)" id="logo-data">
    <g filter="url(#filter0_d_982_3599)">
      <path d="M85.1835 141.735L141.752 85.1669C143.705 83.2143 143.705 80.0484 141.752 78.0958L85.1835 21.5273C83.2309 19.5747 80.0651 19.5747 78.1125 21.5273L21.5439 78.0958C19.5913 80.0484 19.5913 83.2143 21.5439 85.1669L78.1125 141.735C80.0651 143.688 83.2309 143.688 85.1835 141.735Z" fill="#F7F8FC"/>
    </g>
    <g filter="url(#filter1_dd_982_3599)">
      <path d="M54 63C54 58.5817 57.5817 55 62 55H101C105.418 55 109 58.5817 109 63V102C109 106.418 105.418 110 101 110H62C57.5817 110 54 106.418 54 102V63Z" fill="white"/>
    </g>
    <path fill-rule="evenodd" clip-rule="evenodd" d="M72.6742 73.8228H90.3259C91.6362 73.8227 92.7288 73.8227 93.5962 73.9393C94.5117 74.0624 95.3383 74.3332 96.0024 74.9974C96.6667 75.6616 96.9375 76.4882 97.0606 77.4037C97.1772 78.2711 97.1771 79.3637 97.1771 80.674V80.8257C97.1771 82.136 97.1772 83.2286 97.0606 84.096C96.9375 85.0115 96.6667 85.8381 96.0024 86.5023C95.3383 87.1665 94.5117 87.4373 93.5962 87.5604C92.7288 87.6771 91.6362 87.6769 90.3259 87.6769H72.6742C71.3639 87.6769 70.2713 87.6771 69.4039 87.5604C68.4884 87.4373 67.6618 87.1665 66.9976 86.5023C66.3333 85.8381 66.0626 85.0115 65.9395 84.096C65.8229 83.2286 65.8229 82.136 65.8229 80.8257V80.674C65.8229 79.3637 65.8229 78.2711 65.9395 77.4037C66.0626 76.4882 66.3333 75.6616 66.9976 74.9974C67.6618 74.3332 68.4884 74.0624 69.4039 73.9393C70.2713 73.8227 71.3639 73.8227 72.6742 73.8228ZM69.6954 76.1073C69.0224 76.1978 68.7344 76.3541 68.5444 76.5442C68.3543 76.7342 68.198 77.0222 68.1075 77.6952C68.0128 78.3996 68.0104 79.344 68.0104 80.7498C68.0104 82.1557 68.0128 83.1 68.1075 83.8045C68.198 84.4774 68.3543 84.7655 68.5444 84.9555C68.7344 85.1455 69.0224 85.3019 69.6954 85.3924C70.3998 85.4871 71.3442 85.4894 72.75 85.4894H90.25C91.6559 85.4894 92.6003 85.4871 93.3046 85.3924C93.9777 85.3019 94.2657 85.1455 94.4557 84.9555C94.6457 84.7655 94.8021 84.4774 94.8926 83.8045C94.9873 83.1 94.9896 82.1557 94.9896 80.7498C94.9896 79.344 94.9873 78.3996 94.8926 77.6952C94.8021 77.0222 94.6457 76.7342 94.4557 76.5442C94.2657 76.3541 93.9777 76.1978 93.3046 76.1073C92.6003 76.0126 91.6559 76.0103 90.25 76.0103H72.75C71.3442 76.0103 70.3998 76.0126 69.6954 76.1073ZM72.75 78.1978C73.3541 78.1978 73.8438 78.6874 73.8438 79.2915V82.2082C73.8438 82.8122 73.3541 83.3019 72.75 83.3019C72.146 83.3019 71.6563 82.8122 71.6563 82.2082V79.2915C71.6563 78.6874 72.146 78.1978 72.75 78.1978ZM77.125 78.1978C77.7291 78.1978 78.2188 78.6874 78.2188 79.2915V82.2082C78.2188 82.8122 77.7291 83.3019 77.125 83.3019C76.521 83.3019 76.0313 82.8122 76.0313 82.2082V79.2915C76.0313 78.6874 76.521 78.1978 77.125 78.1978ZM82.5938 80.7498C82.5938 80.1458 83.0835 79.6561 83.6875 79.6561H90.25C90.8541 79.6561 91.3438 80.1458 91.3438 80.7498C91.3438 81.3539 90.8541 81.8436 90.25 81.8436H83.6875C83.0835 81.8436 82.5938 81.3539 82.5938 80.7498ZM72.6742 89.8644H90.3259C91.6362 89.8644 92.7288 89.8643 93.5962 89.9809C94.5117 90.104 95.3383 90.3748 96.0024 91.0391C96.6667 91.7032 96.9375 92.5298 97.0606 93.4454C97.1772 94.3128 97.1771 95.4054 97.1771 96.7157V96.8673C97.1771 98.1777 97.1772 99.2702 97.0606 100.138C96.9375 101.053 96.6667 101.88 96.0024 102.544C95.3383 103.208 94.5117 103.479 93.5962 103.602C92.7288 103.719 91.6362 103.719 90.3259 103.719H72.6742C71.3639 103.719 70.2713 103.719 69.4039 103.602C68.4884 103.479 67.6618 103.208 66.9976 102.544C66.3333 101.88 66.0626 101.053 65.9395 100.138C65.8229 99.2702 65.8229 98.1777 65.8229 96.8673V96.7157C65.8229 95.4054 65.8229 94.3128 65.9395 93.4454C66.0626 92.5298 66.3333 91.7032 66.9976 91.0391C67.6618 90.3748 68.4884 90.104 69.4039 89.9809C70.2713 89.8643 71.3639 89.8644 72.6742 89.8644ZM69.6954 92.1489C69.0224 92.2395 68.7344 92.3958 68.5444 92.5858C68.3543 92.7758 68.198 93.0639 68.1075 93.7369C68.0128 94.4413 68.0104 95.3857 68.0104 96.7915C68.0104 98.1973 68.0128 99.1418 68.1075 99.8461C68.198 100.519 68.3543 100.807 68.5444 100.997C68.7344 101.187 69.0224 101.344 69.6954 101.434C70.3998 101.529 71.3442 101.531 72.75 101.531H90.25C91.6559 101.531 92.6003 101.529 93.3046 101.434C93.9777 101.344 94.2657 101.187 94.4557 100.997C94.6457 100.807 94.8021 100.519 94.8926 99.8461C94.9873 99.1418 94.9896 98.1973 94.9896 96.7915C94.9896 95.3857 94.9873 94.4413 94.8926 93.7369C94.8021 93.0639 94.6457 92.7758 94.4557 92.5858C94.2657 92.3958 93.9777 92.2395 93.3046 92.1489C92.6003 92.0543 91.6559 92.0519 90.25 92.0519H72.75C71.3442 92.0519 70.3998 92.0543 69.6954 92.1489ZM72.75 94.2394C73.3541 94.2394 73.8438 94.7291 73.8438 95.3332V98.2498C73.8438 98.8539 73.3541 99.3436 72.75 99.3436C72.146 99.3436 71.6563 98.8539 71.6563 98.2498V95.3332C71.6563 94.7291 72.146 94.2394 72.75 94.2394ZM77.125 94.2394C77.7291 94.2394 78.2188 94.7291 78.2188 95.3332V98.2498C78.2188 98.8539 77.7291 99.3436 77.125 99.3436C76.521 99.3436 76.0313 98.8539 76.0313 98.2498V95.3332C76.0313 94.7291 76.521 94.2394 77.125 94.2394ZM82.5938 96.7915C82.5938 96.1875 83.0835 95.6978 83.6875 95.6978H90.25C90.8541 95.6978 91.3438 96.1875 91.3438 96.7915C91.3438 97.3955 90.8541 97.8853 90.25 97.8853H83.6875C83.0835 97.8853 82.5938 97.3955 82.5938 96.7915Z" fill="#1B68FF"/>
    <path d="M75.2227 68.0781C74.5326 68.0781 73.9141 67.9193 73.3672 67.6016L73.625 66.7617C73.8698 66.8971 74.1354 67.0065 74.4219 67.0898C74.7109 67.1732 74.9922 67.2148 75.2656 67.2148C75.6016 67.2148 75.8555 67.1432 76.0273 67C76.1992 66.8542 76.2852 66.6458 76.2852 66.375C76.2852 66.0156 76.0456 65.7669 75.5664 65.6289C75.5326 65.6185 75.4375 65.5911 75.2812 65.5469C75.125 65.5 74.9779 65.4557 74.8398 65.4141C74.7044 65.3698 74.6068 65.3359 74.5469 65.3125C73.7786 65.0417 73.3945 64.5365 73.3945 63.7969C73.3945 63.2786 73.5781 62.8789 73.9453 62.5977C74.3151 62.3164 74.8047 62.1758 75.4141 62.1758C76.1042 62.1758 76.6992 62.3177 77.1992 62.6016L76.8789 63.375C76.3685 63.1458 75.8945 63.0312 75.457 63.0312C75.1419 63.0312 74.9036 63.0872 74.7422 63.1992C74.5833 63.3086 74.4987 63.4922 74.4883 63.75C74.4883 64.0677 74.6458 64.2747 74.9609 64.3711C75.0234 64.3945 75.1771 64.4453 75.4219 64.5234C75.6667 64.6016 75.8255 64.6523 75.8984 64.6758C76.4219 64.8477 76.7956 65.0612 77.0195 65.3164C77.2461 65.5716 77.3594 65.9271 77.3594 66.3828C77.3594 66.9271 77.1667 67.3464 76.7812 67.6406C76.3958 67.9323 75.8763 68.0781 75.2227 68.0781ZM79.8711 68.0781C79.181 68.0781 78.5625 67.9193 78.0156 67.6016L78.2734 66.7617C78.5182 66.8971 78.7839 67.0065 79.0703 67.0898C79.3594 67.1732 79.6406 67.2148 79.9141 67.2148C80.25 67.2148 80.5039 67.1432 80.6758 67C80.8477 66.8542 80.9336 66.6458 80.9336 66.375C80.9336 66.0156 80.694 65.7669 80.2148 65.6289C80.181 65.6185 80.0859 65.5911 79.9297 65.5469C79.7734 65.5 79.6263 65.4557 79.4883 65.4141C79.3529 65.3698 79.2552 65.3359 79.1953 65.3125C78.4271 65.0417 78.043 64.5365 78.043 63.7969C78.043 63.2786 78.2266 62.8789 78.5938 62.5977C78.9635 62.3164 79.4531 62.1758 80.0625 62.1758C80.7526 62.1758 81.3477 62.3177 81.8477 62.6016L81.5273 63.375C81.0169 63.1458 80.543 63.0312 80.1055 63.0312C79.7904 63.0312 79.5521 63.0872 79.3906 63.1992C79.2318 63.3086 79.1471 63.4922 79.1367 63.75C79.1367 64.0677 79.2943 64.2747 79.6094 64.3711C79.6719 64.3945 79.8255 64.4453 80.0703 64.5234C80.3151 64.6016 80.474 64.6523 80.5469 64.6758C81.0703 64.8477 81.444 65.0612 81.668 65.3164C81.8945 65.5716 82.0078 65.9271 82.0078 66.3828C82.0078 66.9271 81.8151 67.3464 81.4297 67.6406C81.0443 67.9323 80.5247 68.0781 79.8711 68.0781ZM82.8867 68V62.2617H85.0078C85.2969 62.2617 85.5469 62.2747 85.7578 62.3008C85.9714 62.3268 86.1732 62.375 86.3633 62.4453C86.556 62.513 86.7109 62.6055 86.8281 62.7227C86.9479 62.8398 87.0417 62.9935 87.1094 63.1836C87.1797 63.3711 87.2148 63.5938 87.2148 63.8516C87.2148 64.612 86.8698 65.112 86.1797 65.3516C86.3203 65.5104 86.4948 65.8047 86.7031 66.2344L87.5547 68H86.3984L85.7305 66.5039C85.4779 65.9674 85.3216 65.6497 85.2617 65.5508C85.2174 65.5482 85.0703 65.5469 84.8203 65.5469L83.9336 65.5391V68H82.8867ZM85.1016 64.7812C85.5078 64.7812 85.7995 64.7096 85.9766 64.5664C86.1536 64.4206 86.2422 64.1875 86.2422 63.8672C86.2422 63.5859 86.1523 63.3789 85.9727 63.2461C85.793 63.1133 85.5182 63.0469 85.1484 63.0469H83.9336V64.7773C83.9727 64.7773 84.1667 64.7786 84.5156 64.7812C84.8646 64.7812 85.0599 64.7812 85.1016 64.7812Z" fill="#1B68FF"/>
    <defs>
      <filter id="filter0_d_982_3599" x="0.0794678" y="0.0629883" width="163.137" height="163.137" filterUnits="userSpaceOnUse" color-interpolation-filters="sRGB">
      <feFlood flood-opacity="0" result="BackgroundImageFix"/>
      <feColorMatrix in="SourceAlpha" type="matrix" values="0 0 0 0 0 0 0 0 0 0 0 0 0 0 0 0 0 0 127 0" result="hardAlpha"/>
      <feOffset/>
      <feGaussianBlur stdDeviation="10"/>
      <feComposite in2="hardAlpha" operator="out"/>
      <feColorMatrix type="matrix" values="0 0 0 0 0.105882 0 0 0 0 0.407843 0 0 0 0 1 0 0 0 0.25 0"/>
      <feBlend mode="normal" in2="BackgroundImageFix" result="effect1_dropShadow_982_3599"/>
      <feBlend mode="normal" in="SourceGraphic" in2="effect1_dropShadow_982_3599" result="shape"/>
      </filter>
      <filter id="filter1_dd_982_3599" x="1.2" y="11" width="160.6" height="160.6" filterUnits="userSpaceOnUse" color-interpolation-filters="sRGB">
      <feFlood flood-opacity="0" result="BackgroundImageFix"/>
      <feColorMatrix in="SourceAlpha" type="matrix" values="0 0 0 0 0 0 0 0 0 0 0 0 0 0 0 0 0 0 127 0" result="hardAlpha"/>
      <feOffset dy="6.6"/>
      <feGaussianBlur stdDeviation="8.8"/>
      <feColorMatrix type="matrix" values="0 0 0 0 0.126997 0 0 0 0 0.301475 0 0 0 0 0.554167 0 0 0 0.08 0"/>
      <feBlend mode="normal" in2="BackgroundImageFix" result="effect1_dropShadow_982_3599"/>
      <feColorMatrix in="SourceAlpha" type="matrix" values="0 0 0 0 0 0 0 0 0 0 0 0 0 0 0 0 0 0 127 0" result="hardAlpha"/>
      <feOffset dy="8.8"/>
      <feGaussianBlur stdDeviation="26.4"/>
      <feColorMatrix type="matrix" values="0 0 0 0 0.257812 0 0 0 0 0.433025 0 0 0 0 0.6875 0 0 0 0.06 0"/>
      <feBlend mode="normal" in2="effect1_dropShadow_982_3599" result="effect2_dropShadow_982_3599"/>
      <feBlend mode="normal" in="SourceGraphic" in2="effect2_dropShadow_982_3599" result="shape"/>
    </filter>
    </defs>
  </g>
  <g id="logo-border">
    <defs>
      <linearGradient id="paint0_linear_960_3271" x1="0" y1="23" x2="179" y2="23" gradientUnits="userSpaceOnUse">
        <stop stop-color="#1B68FF"/>
        <stop offset="1" stop-color="#8CC84B"/>
      </linearGradient>
      <linearGradient id="paint1_linear_1B68FF_8CC84B" x1="366" y1="52" x2="538" y2="66" gradientUnits="userSpaceOnUse">
        <stop stop-color="#8CC84B"/>
        <stop offset="1" stop-color="#1B68FF"/>
      </linearGradient>
      <linearGradient id="paint2_linear_bezier_curve" x1="284" y1="124" x2="112" y2="110" gradientUnits="userSpaceOnUse">
        <stop stop-color="#8CC84B"/>
        <stop offset="1" stop-color="#1B68FF"/>
      </linearGradient>
    </defs>
    <path id="right-border" d="M541.12 68L579.4576 29.8891C581.215 28.1318 584.0642 28.1318 585.8216 29.8891L642.39 86.4577C644.147 88.215 644.147 91.0643 642.39 92.8216L585.8216 149.39C584.0642 151.148 581.215 151.148 579.4576 149.39L522.3891 92.8216C520.6317 91.0643 520.6317 88.215 522.3891 86.4577L541.12 68Z" stroke="#2414FF" stroke-dasharray="800" stroke-dashoffset="800"/>
    <path id="left-border" d="M109.6 108.6L68.83 149.382C67.0726 151.139 64.2234 151.139 62.466 149.382L5.8975 92.8133C4.1401 90.056 4.1401 87.2067 5.8975 85.4494L62.466 28.8808C64.2234 26.1235 67.0726 26.1235 68.83 28.8808L125.399 85.4494C127.156 87.2067 127.156 90.056 125.399 92.8133L109.6 108.6Z" stroke="#1B68FF"  stroke-dasharray="800" stroke-dashoffset="800"/>
    <path id="bezier-curve" d="M112,110 L190,157.5 C205,165.5 215,165 230,157.5 L284,124" fill="none" stroke="url(#paint2_linear_bezier_curve)" stroke-width="3" stroke-linecap="round" stroke-dasharray="200" stroke-dashoffset="200"/>
    <path id="bezier-curve-rotated" d="M538,66 L460,18.5 C445,10.5 435,11 420,18.5 L366,52" fill="none" stroke="url(#paint1_linear_1B68FF_8CC84B)" stroke-width="3" stroke-linecap="round" stroke-dasharray="200" stroke-dashoffset="200"/>
  </g>
</svg>
